%TF.GenerationSoftware,KiCad,Pcbnew,8.0.4*%
%TF.CreationDate,2024-08-20T17:15:03+05:30*%
%TF.ProjectId,Teensy_breakout,5465656e-7379-45f6-9272-65616b6f7574,rev?*%
%TF.SameCoordinates,Original*%
%TF.FileFunction,Legend,Top*%
%TF.FilePolarity,Positive*%
%FSLAX46Y46*%
G04 Gerber Fmt 4.6, Leading zero omitted, Abs format (unit mm)*
G04 Created by KiCad (PCBNEW 8.0.4) date 2024-08-20 17:15:03*
%MOMM*%
%LPD*%
G01*
G04 APERTURE LIST*
%ADD10C,0.150000*%
%ADD11C,0.120000*%
%ADD12C,0.100000*%
G04 APERTURE END LIST*
D10*
X148806256Y-104706009D02*
X149139589Y-104706009D01*
X149282446Y-105229819D02*
X148806256Y-105229819D01*
X148806256Y-105229819D02*
X148806256Y-104229819D01*
X148806256Y-104229819D02*
X149282446Y-104229819D01*
X149568161Y-104563152D02*
X149949113Y-104563152D01*
X149711018Y-104229819D02*
X149711018Y-105086961D01*
X149711018Y-105086961D02*
X149758637Y-105182200D01*
X149758637Y-105182200D02*
X149853875Y-105229819D01*
X149853875Y-105229819D02*
X149949113Y-105229819D01*
X150282447Y-105229819D02*
X150282447Y-104229819D01*
X150711018Y-105229819D02*
X150711018Y-104706009D01*
X150711018Y-104706009D02*
X150663399Y-104610771D01*
X150663399Y-104610771D02*
X150568161Y-104563152D01*
X150568161Y-104563152D02*
X150425304Y-104563152D01*
X150425304Y-104563152D02*
X150330066Y-104610771D01*
X150330066Y-104610771D02*
X150282447Y-104658390D01*
X151568161Y-105182200D02*
X151472923Y-105229819D01*
X151472923Y-105229819D02*
X151282447Y-105229819D01*
X151282447Y-105229819D02*
X151187209Y-105182200D01*
X151187209Y-105182200D02*
X151139590Y-105086961D01*
X151139590Y-105086961D02*
X151139590Y-104706009D01*
X151139590Y-104706009D02*
X151187209Y-104610771D01*
X151187209Y-104610771D02*
X151282447Y-104563152D01*
X151282447Y-104563152D02*
X151472923Y-104563152D01*
X151472923Y-104563152D02*
X151568161Y-104610771D01*
X151568161Y-104610771D02*
X151615780Y-104706009D01*
X151615780Y-104706009D02*
X151615780Y-104801247D01*
X151615780Y-104801247D02*
X151139590Y-104896485D01*
X152044352Y-105229819D02*
X152044352Y-104563152D01*
X152044352Y-104753628D02*
X152091971Y-104658390D01*
X152091971Y-104658390D02*
X152139590Y-104610771D01*
X152139590Y-104610771D02*
X152234828Y-104563152D01*
X152234828Y-104563152D02*
X152330066Y-104563152D01*
X152663400Y-104563152D02*
X152663400Y-105229819D01*
X152663400Y-104658390D02*
X152711019Y-104610771D01*
X152711019Y-104610771D02*
X152806257Y-104563152D01*
X152806257Y-104563152D02*
X152949114Y-104563152D01*
X152949114Y-104563152D02*
X153044352Y-104610771D01*
X153044352Y-104610771D02*
X153091971Y-104706009D01*
X153091971Y-104706009D02*
X153091971Y-105229819D01*
X153949114Y-105182200D02*
X153853876Y-105229819D01*
X153853876Y-105229819D02*
X153663400Y-105229819D01*
X153663400Y-105229819D02*
X153568162Y-105182200D01*
X153568162Y-105182200D02*
X153520543Y-105086961D01*
X153520543Y-105086961D02*
X153520543Y-104706009D01*
X153520543Y-104706009D02*
X153568162Y-104610771D01*
X153568162Y-104610771D02*
X153663400Y-104563152D01*
X153663400Y-104563152D02*
X153853876Y-104563152D01*
X153853876Y-104563152D02*
X153949114Y-104610771D01*
X153949114Y-104610771D02*
X153996733Y-104706009D01*
X153996733Y-104706009D02*
X153996733Y-104801247D01*
X153996733Y-104801247D02*
X153520543Y-104896485D01*
X154282448Y-104563152D02*
X154663400Y-104563152D01*
X154425305Y-104229819D02*
X154425305Y-105086961D01*
X154425305Y-105086961D02*
X154472924Y-105182200D01*
X154472924Y-105182200D02*
X154568162Y-105229819D01*
X154568162Y-105229819D02*
X154663400Y-105229819D01*
X151856666Y-94296033D02*
X151856666Y-93596033D01*
X151856666Y-93596033D02*
X152090000Y-94096033D01*
X152090000Y-94096033D02*
X152323333Y-93596033D01*
X152323333Y-93596033D02*
X152323333Y-94296033D01*
X152656666Y-94296033D02*
X152656666Y-93596033D01*
X152989999Y-94296033D02*
X152989999Y-93596033D01*
X152989999Y-93596033D02*
X153223333Y-94096033D01*
X153223333Y-94096033D02*
X153456666Y-93596033D01*
X153456666Y-93596033D02*
X153456666Y-94296033D01*
X153723333Y-93596033D02*
X154189999Y-94296033D01*
X154189999Y-93596033D02*
X153723333Y-94296033D01*
X154856666Y-94296033D02*
X154623333Y-93962700D01*
X154456666Y-94296033D02*
X154456666Y-93596033D01*
X154456666Y-93596033D02*
X154723333Y-93596033D01*
X154723333Y-93596033D02*
X154790000Y-93629366D01*
X154790000Y-93629366D02*
X154823333Y-93662700D01*
X154823333Y-93662700D02*
X154856666Y-93729366D01*
X154856666Y-93729366D02*
X154856666Y-93829366D01*
X154856666Y-93829366D02*
X154823333Y-93896033D01*
X154823333Y-93896033D02*
X154790000Y-93929366D01*
X154790000Y-93929366D02*
X154723333Y-93962700D01*
X154723333Y-93962700D02*
X154456666Y-93962700D01*
X155056666Y-93596033D02*
X155456666Y-93596033D01*
X155256666Y-94296033D02*
X155256666Y-93596033D01*
X156056666Y-94296033D02*
X155656666Y-94296033D01*
X155856666Y-94296033D02*
X155856666Y-93596033D01*
X155856666Y-93596033D02*
X155789999Y-93696033D01*
X155789999Y-93696033D02*
X155723333Y-93762700D01*
X155723333Y-93762700D02*
X155656666Y-93796033D01*
X156490000Y-93596033D02*
X156556666Y-93596033D01*
X156556666Y-93596033D02*
X156623333Y-93629366D01*
X156623333Y-93629366D02*
X156656666Y-93662700D01*
X156656666Y-93662700D02*
X156690000Y-93729366D01*
X156690000Y-93729366D02*
X156723333Y-93862700D01*
X156723333Y-93862700D02*
X156723333Y-94029366D01*
X156723333Y-94029366D02*
X156690000Y-94162700D01*
X156690000Y-94162700D02*
X156656666Y-94229366D01*
X156656666Y-94229366D02*
X156623333Y-94262700D01*
X156623333Y-94262700D02*
X156556666Y-94296033D01*
X156556666Y-94296033D02*
X156490000Y-94296033D01*
X156490000Y-94296033D02*
X156423333Y-94262700D01*
X156423333Y-94262700D02*
X156390000Y-94229366D01*
X156390000Y-94229366D02*
X156356666Y-94162700D01*
X156356666Y-94162700D02*
X156323333Y-94029366D01*
X156323333Y-94029366D02*
X156323333Y-93862700D01*
X156323333Y-93862700D02*
X156356666Y-93729366D01*
X156356666Y-93729366D02*
X156390000Y-93662700D01*
X156390000Y-93662700D02*
X156423333Y-93629366D01*
X156423333Y-93629366D02*
X156490000Y-93596033D01*
X157323333Y-93596033D02*
X157190000Y-93596033D01*
X157190000Y-93596033D02*
X157123333Y-93629366D01*
X157123333Y-93629366D02*
X157090000Y-93662700D01*
X157090000Y-93662700D02*
X157023333Y-93762700D01*
X157023333Y-93762700D02*
X156990000Y-93896033D01*
X156990000Y-93896033D02*
X156990000Y-94162700D01*
X156990000Y-94162700D02*
X157023333Y-94229366D01*
X157023333Y-94229366D02*
X157056667Y-94262700D01*
X157056667Y-94262700D02*
X157123333Y-94296033D01*
X157123333Y-94296033D02*
X157256667Y-94296033D01*
X157256667Y-94296033D02*
X157323333Y-94262700D01*
X157323333Y-94262700D02*
X157356667Y-94229366D01*
X157356667Y-94229366D02*
X157390000Y-94162700D01*
X157390000Y-94162700D02*
X157390000Y-93996033D01*
X157390000Y-93996033D02*
X157356667Y-93929366D01*
X157356667Y-93929366D02*
X157323333Y-93896033D01*
X157323333Y-93896033D02*
X157256667Y-93862700D01*
X157256667Y-93862700D02*
X157123333Y-93862700D01*
X157123333Y-93862700D02*
X157056667Y-93896033D01*
X157056667Y-93896033D02*
X157023333Y-93929366D01*
X157023333Y-93929366D02*
X156990000Y-93996033D01*
X157656667Y-93662700D02*
X157690000Y-93629366D01*
X157690000Y-93629366D02*
X157756667Y-93596033D01*
X157756667Y-93596033D02*
X157923334Y-93596033D01*
X157923334Y-93596033D02*
X157990000Y-93629366D01*
X157990000Y-93629366D02*
X158023334Y-93662700D01*
X158023334Y-93662700D02*
X158056667Y-93729366D01*
X158056667Y-93729366D02*
X158056667Y-93796033D01*
X158056667Y-93796033D02*
X158023334Y-93896033D01*
X158023334Y-93896033D02*
X157623334Y-94296033D01*
X157623334Y-94296033D02*
X158056667Y-94296033D01*
X155394819Y-71699047D02*
X154394819Y-71699047D01*
X154394819Y-71699047D02*
X155109104Y-71365714D01*
X155109104Y-71365714D02*
X154394819Y-71032381D01*
X154394819Y-71032381D02*
X155394819Y-71032381D01*
X155394819Y-70556190D02*
X154728152Y-70556190D01*
X154394819Y-70556190D02*
X154442438Y-70603809D01*
X154442438Y-70603809D02*
X154490057Y-70556190D01*
X154490057Y-70556190D02*
X154442438Y-70508571D01*
X154442438Y-70508571D02*
X154394819Y-70556190D01*
X154394819Y-70556190D02*
X154490057Y-70556190D01*
X155347200Y-69651429D02*
X155394819Y-69746667D01*
X155394819Y-69746667D02*
X155394819Y-69937143D01*
X155394819Y-69937143D02*
X155347200Y-70032381D01*
X155347200Y-70032381D02*
X155299580Y-70080000D01*
X155299580Y-70080000D02*
X155204342Y-70127619D01*
X155204342Y-70127619D02*
X154918628Y-70127619D01*
X154918628Y-70127619D02*
X154823390Y-70080000D01*
X154823390Y-70080000D02*
X154775771Y-70032381D01*
X154775771Y-70032381D02*
X154728152Y-69937143D01*
X154728152Y-69937143D02*
X154728152Y-69746667D01*
X154728152Y-69746667D02*
X154775771Y-69651429D01*
X155394819Y-69222857D02*
X154728152Y-69222857D01*
X154918628Y-69222857D02*
X154823390Y-69175238D01*
X154823390Y-69175238D02*
X154775771Y-69127619D01*
X154775771Y-69127619D02*
X154728152Y-69032381D01*
X154728152Y-69032381D02*
X154728152Y-68937143D01*
X155394819Y-68460952D02*
X155347200Y-68556190D01*
X155347200Y-68556190D02*
X155299580Y-68603809D01*
X155299580Y-68603809D02*
X155204342Y-68651428D01*
X155204342Y-68651428D02*
X154918628Y-68651428D01*
X154918628Y-68651428D02*
X154823390Y-68603809D01*
X154823390Y-68603809D02*
X154775771Y-68556190D01*
X154775771Y-68556190D02*
X154728152Y-68460952D01*
X154728152Y-68460952D02*
X154728152Y-68318095D01*
X154728152Y-68318095D02*
X154775771Y-68222857D01*
X154775771Y-68222857D02*
X154823390Y-68175238D01*
X154823390Y-68175238D02*
X154918628Y-68127619D01*
X154918628Y-68127619D02*
X155204342Y-68127619D01*
X155204342Y-68127619D02*
X155299580Y-68175238D01*
X155299580Y-68175238D02*
X155347200Y-68222857D01*
X155347200Y-68222857D02*
X155394819Y-68318095D01*
X155394819Y-68318095D02*
X155394819Y-68460952D01*
X155347200Y-66984761D02*
X155394819Y-66841904D01*
X155394819Y-66841904D02*
X155394819Y-66603809D01*
X155394819Y-66603809D02*
X155347200Y-66508571D01*
X155347200Y-66508571D02*
X155299580Y-66460952D01*
X155299580Y-66460952D02*
X155204342Y-66413333D01*
X155204342Y-66413333D02*
X155109104Y-66413333D01*
X155109104Y-66413333D02*
X155013866Y-66460952D01*
X155013866Y-66460952D02*
X154966247Y-66508571D01*
X154966247Y-66508571D02*
X154918628Y-66603809D01*
X154918628Y-66603809D02*
X154871009Y-66794285D01*
X154871009Y-66794285D02*
X154823390Y-66889523D01*
X154823390Y-66889523D02*
X154775771Y-66937142D01*
X154775771Y-66937142D02*
X154680533Y-66984761D01*
X154680533Y-66984761D02*
X154585295Y-66984761D01*
X154585295Y-66984761D02*
X154490057Y-66937142D01*
X154490057Y-66937142D02*
X154442438Y-66889523D01*
X154442438Y-66889523D02*
X154394819Y-66794285D01*
X154394819Y-66794285D02*
X154394819Y-66556190D01*
X154394819Y-66556190D02*
X154442438Y-66413333D01*
X155394819Y-65984761D02*
X154394819Y-65984761D01*
X154394819Y-65984761D02*
X154394819Y-65746666D01*
X154394819Y-65746666D02*
X154442438Y-65603809D01*
X154442438Y-65603809D02*
X154537676Y-65508571D01*
X154537676Y-65508571D02*
X154632914Y-65460952D01*
X154632914Y-65460952D02*
X154823390Y-65413333D01*
X154823390Y-65413333D02*
X154966247Y-65413333D01*
X154966247Y-65413333D02*
X155156723Y-65460952D01*
X155156723Y-65460952D02*
X155251961Y-65508571D01*
X155251961Y-65508571D02*
X155347200Y-65603809D01*
X155347200Y-65603809D02*
X155394819Y-65746666D01*
X155394819Y-65746666D02*
X155394819Y-65984761D01*
X156884019Y-114485323D02*
X157693542Y-114485323D01*
X157693542Y-114485323D02*
X157788780Y-114437704D01*
X157788780Y-114437704D02*
X157836400Y-114390085D01*
X157836400Y-114390085D02*
X157884019Y-114294847D01*
X157884019Y-114294847D02*
X157884019Y-114104371D01*
X157884019Y-114104371D02*
X157836400Y-114009133D01*
X157836400Y-114009133D02*
X157788780Y-113961514D01*
X157788780Y-113961514D02*
X157693542Y-113913895D01*
X157693542Y-113913895D02*
X156884019Y-113913895D01*
X157836400Y-113485323D02*
X157884019Y-113342466D01*
X157884019Y-113342466D02*
X157884019Y-113104371D01*
X157884019Y-113104371D02*
X157836400Y-113009133D01*
X157836400Y-113009133D02*
X157788780Y-112961514D01*
X157788780Y-112961514D02*
X157693542Y-112913895D01*
X157693542Y-112913895D02*
X157598304Y-112913895D01*
X157598304Y-112913895D02*
X157503066Y-112961514D01*
X157503066Y-112961514D02*
X157455447Y-113009133D01*
X157455447Y-113009133D02*
X157407828Y-113104371D01*
X157407828Y-113104371D02*
X157360209Y-113294847D01*
X157360209Y-113294847D02*
X157312590Y-113390085D01*
X157312590Y-113390085D02*
X157264971Y-113437704D01*
X157264971Y-113437704D02*
X157169733Y-113485323D01*
X157169733Y-113485323D02*
X157074495Y-113485323D01*
X157074495Y-113485323D02*
X156979257Y-113437704D01*
X156979257Y-113437704D02*
X156931638Y-113390085D01*
X156931638Y-113390085D02*
X156884019Y-113294847D01*
X156884019Y-113294847D02*
X156884019Y-113056752D01*
X156884019Y-113056752D02*
X156931638Y-112913895D01*
X157360209Y-112151990D02*
X157407828Y-112009133D01*
X157407828Y-112009133D02*
X157455447Y-111961514D01*
X157455447Y-111961514D02*
X157550685Y-111913895D01*
X157550685Y-111913895D02*
X157693542Y-111913895D01*
X157693542Y-111913895D02*
X157788780Y-111961514D01*
X157788780Y-111961514D02*
X157836400Y-112009133D01*
X157836400Y-112009133D02*
X157884019Y-112104371D01*
X157884019Y-112104371D02*
X157884019Y-112485323D01*
X157884019Y-112485323D02*
X156884019Y-112485323D01*
X156884019Y-112485323D02*
X156884019Y-112151990D01*
X156884019Y-112151990D02*
X156931638Y-112056752D01*
X156931638Y-112056752D02*
X156979257Y-112009133D01*
X156979257Y-112009133D02*
X157074495Y-111961514D01*
X157074495Y-111961514D02*
X157169733Y-111961514D01*
X157169733Y-111961514D02*
X157264971Y-112009133D01*
X157264971Y-112009133D02*
X157312590Y-112056752D01*
X157312590Y-112056752D02*
X157360209Y-112151990D01*
X157360209Y-112151990D02*
X157360209Y-112485323D01*
X157884019Y-110723418D02*
X156884019Y-110723418D01*
X157360209Y-110723418D02*
X157360209Y-110151990D01*
X157884019Y-110151990D02*
X156884019Y-110151990D01*
X157884019Y-109532942D02*
X157836400Y-109628180D01*
X157836400Y-109628180D02*
X157788780Y-109675799D01*
X157788780Y-109675799D02*
X157693542Y-109723418D01*
X157693542Y-109723418D02*
X157407828Y-109723418D01*
X157407828Y-109723418D02*
X157312590Y-109675799D01*
X157312590Y-109675799D02*
X157264971Y-109628180D01*
X157264971Y-109628180D02*
X157217352Y-109532942D01*
X157217352Y-109532942D02*
X157217352Y-109390085D01*
X157217352Y-109390085D02*
X157264971Y-109294847D01*
X157264971Y-109294847D02*
X157312590Y-109247228D01*
X157312590Y-109247228D02*
X157407828Y-109199609D01*
X157407828Y-109199609D02*
X157693542Y-109199609D01*
X157693542Y-109199609D02*
X157788780Y-109247228D01*
X157788780Y-109247228D02*
X157836400Y-109294847D01*
X157836400Y-109294847D02*
X157884019Y-109390085D01*
X157884019Y-109390085D02*
X157884019Y-109532942D01*
X157836400Y-108818656D02*
X157884019Y-108723418D01*
X157884019Y-108723418D02*
X157884019Y-108532942D01*
X157884019Y-108532942D02*
X157836400Y-108437704D01*
X157836400Y-108437704D02*
X157741161Y-108390085D01*
X157741161Y-108390085D02*
X157693542Y-108390085D01*
X157693542Y-108390085D02*
X157598304Y-108437704D01*
X157598304Y-108437704D02*
X157550685Y-108532942D01*
X157550685Y-108532942D02*
X157550685Y-108675799D01*
X157550685Y-108675799D02*
X157503066Y-108771037D01*
X157503066Y-108771037D02*
X157407828Y-108818656D01*
X157407828Y-108818656D02*
X157360209Y-108818656D01*
X157360209Y-108818656D02*
X157264971Y-108771037D01*
X157264971Y-108771037D02*
X157217352Y-108675799D01*
X157217352Y-108675799D02*
X157217352Y-108532942D01*
X157217352Y-108532942D02*
X157264971Y-108437704D01*
X157217352Y-108104370D02*
X157217352Y-107723418D01*
X156884019Y-107961513D02*
X157741161Y-107961513D01*
X157741161Y-107961513D02*
X157836400Y-107913894D01*
X157836400Y-107913894D02*
X157884019Y-107818656D01*
X157884019Y-107818656D02*
X157884019Y-107723418D01*
X153678095Y-118834819D02*
X153678095Y-119644342D01*
X153678095Y-119644342D02*
X153725714Y-119739580D01*
X153725714Y-119739580D02*
X153773333Y-119787200D01*
X153773333Y-119787200D02*
X153868571Y-119834819D01*
X153868571Y-119834819D02*
X154059047Y-119834819D01*
X154059047Y-119834819D02*
X154154285Y-119787200D01*
X154154285Y-119787200D02*
X154201904Y-119739580D01*
X154201904Y-119739580D02*
X154249523Y-119644342D01*
X154249523Y-119644342D02*
X154249523Y-118834819D01*
X154678095Y-119787200D02*
X154820952Y-119834819D01*
X154820952Y-119834819D02*
X155059047Y-119834819D01*
X155059047Y-119834819D02*
X155154285Y-119787200D01*
X155154285Y-119787200D02*
X155201904Y-119739580D01*
X155201904Y-119739580D02*
X155249523Y-119644342D01*
X155249523Y-119644342D02*
X155249523Y-119549104D01*
X155249523Y-119549104D02*
X155201904Y-119453866D01*
X155201904Y-119453866D02*
X155154285Y-119406247D01*
X155154285Y-119406247D02*
X155059047Y-119358628D01*
X155059047Y-119358628D02*
X154868571Y-119311009D01*
X154868571Y-119311009D02*
X154773333Y-119263390D01*
X154773333Y-119263390D02*
X154725714Y-119215771D01*
X154725714Y-119215771D02*
X154678095Y-119120533D01*
X154678095Y-119120533D02*
X154678095Y-119025295D01*
X154678095Y-119025295D02*
X154725714Y-118930057D01*
X154725714Y-118930057D02*
X154773333Y-118882438D01*
X154773333Y-118882438D02*
X154868571Y-118834819D01*
X154868571Y-118834819D02*
X155106666Y-118834819D01*
X155106666Y-118834819D02*
X155249523Y-118882438D01*
X156011428Y-119311009D02*
X156154285Y-119358628D01*
X156154285Y-119358628D02*
X156201904Y-119406247D01*
X156201904Y-119406247D02*
X156249523Y-119501485D01*
X156249523Y-119501485D02*
X156249523Y-119644342D01*
X156249523Y-119644342D02*
X156201904Y-119739580D01*
X156201904Y-119739580D02*
X156154285Y-119787200D01*
X156154285Y-119787200D02*
X156059047Y-119834819D01*
X156059047Y-119834819D02*
X155678095Y-119834819D01*
X155678095Y-119834819D02*
X155678095Y-118834819D01*
X155678095Y-118834819D02*
X156011428Y-118834819D01*
X156011428Y-118834819D02*
X156106666Y-118882438D01*
X156106666Y-118882438D02*
X156154285Y-118930057D01*
X156154285Y-118930057D02*
X156201904Y-119025295D01*
X156201904Y-119025295D02*
X156201904Y-119120533D01*
X156201904Y-119120533D02*
X156154285Y-119215771D01*
X156154285Y-119215771D02*
X156106666Y-119263390D01*
X156106666Y-119263390D02*
X156011428Y-119311009D01*
X156011428Y-119311009D02*
X155678095Y-119311009D01*
X153376666Y-95566033D02*
X153376666Y-94866033D01*
X153376666Y-94866033D02*
X153543333Y-94866033D01*
X153543333Y-94866033D02*
X153643333Y-94899366D01*
X153643333Y-94899366D02*
X153710000Y-94966033D01*
X153710000Y-94966033D02*
X153743333Y-95032700D01*
X153743333Y-95032700D02*
X153776666Y-95166033D01*
X153776666Y-95166033D02*
X153776666Y-95266033D01*
X153776666Y-95266033D02*
X153743333Y-95399366D01*
X153743333Y-95399366D02*
X153710000Y-95466033D01*
X153710000Y-95466033D02*
X153643333Y-95532700D01*
X153643333Y-95532700D02*
X153543333Y-95566033D01*
X153543333Y-95566033D02*
X153376666Y-95566033D01*
X153976666Y-94866033D02*
X154210000Y-95566033D01*
X154210000Y-95566033D02*
X154443333Y-94866033D01*
X154876666Y-94866033D02*
X154876666Y-95366033D01*
X154876666Y-95366033D02*
X154843333Y-95466033D01*
X154843333Y-95466033D02*
X154776666Y-95532700D01*
X154776666Y-95532700D02*
X154676666Y-95566033D01*
X154676666Y-95566033D02*
X154610000Y-95566033D01*
X155509999Y-94866033D02*
X155376666Y-94866033D01*
X155376666Y-94866033D02*
X155309999Y-94899366D01*
X155309999Y-94899366D02*
X155276666Y-94932700D01*
X155276666Y-94932700D02*
X155209999Y-95032700D01*
X155209999Y-95032700D02*
X155176666Y-95166033D01*
X155176666Y-95166033D02*
X155176666Y-95432700D01*
X155176666Y-95432700D02*
X155209999Y-95499366D01*
X155209999Y-95499366D02*
X155243333Y-95532700D01*
X155243333Y-95532700D02*
X155309999Y-95566033D01*
X155309999Y-95566033D02*
X155443333Y-95566033D01*
X155443333Y-95566033D02*
X155509999Y-95532700D01*
X155509999Y-95532700D02*
X155543333Y-95499366D01*
X155543333Y-95499366D02*
X155576666Y-95432700D01*
X155576666Y-95432700D02*
X155576666Y-95266033D01*
X155576666Y-95266033D02*
X155543333Y-95199366D01*
X155543333Y-95199366D02*
X155509999Y-95166033D01*
X155509999Y-95166033D02*
X155443333Y-95132700D01*
X155443333Y-95132700D02*
X155309999Y-95132700D01*
X155309999Y-95132700D02*
X155243333Y-95166033D01*
X155243333Y-95166033D02*
X155209999Y-95199366D01*
X155209999Y-95199366D02*
X155176666Y-95266033D01*
X155843333Y-95366033D02*
X156176666Y-95366033D01*
X155776666Y-95566033D02*
X156010000Y-94866033D01*
X156010000Y-94866033D02*
X156243333Y-95566033D01*
D11*
%TO.C,J2*%
X138490000Y-64770000D02*
X138490000Y-123250000D01*
X135830000Y-123250000D02*
X138490000Y-123250000D01*
X135830000Y-64770000D02*
X138490000Y-64770000D01*
X135830000Y-64770000D02*
X135830000Y-123250000D01*
X135830000Y-63500000D02*
X135830000Y-62170000D01*
X135830000Y-62170000D02*
X137160000Y-62170000D01*
%TO.C,J1*%
X171390000Y-120650000D02*
X171390000Y-62170000D01*
X174050000Y-62170000D02*
X171390000Y-62170000D01*
X174050000Y-120650000D02*
X171390000Y-120650000D01*
X174050000Y-120650000D02*
X174050000Y-62170000D01*
X174050000Y-121920000D02*
X174050000Y-123250000D01*
X174050000Y-123250000D02*
X172720000Y-123250000D01*
D10*
%TO.C,U1*%
X146050000Y-62230000D02*
X163830000Y-62230000D01*
X146050000Y-123190000D02*
X146050000Y-62230000D01*
X148588400Y-105960000D02*
X148588400Y-109960000D01*
X148588400Y-109960000D02*
X148838400Y-109960000D01*
X148590000Y-62230000D02*
X148590000Y-74930000D01*
X148590000Y-74930000D02*
X161290000Y-74930000D01*
X148590000Y-87630000D02*
X148590000Y-100330000D01*
X148590000Y-100330000D02*
X161290000Y-100330000D01*
X148838400Y-109960000D02*
X154838400Y-109960000D01*
X149860000Y-62230000D02*
X149860000Y-63500000D01*
X149860000Y-63500000D02*
X160020000Y-63500000D01*
X151130000Y-118110000D02*
X151130000Y-123190000D01*
X151130000Y-124460000D02*
X151130000Y-123190000D01*
X153670000Y-78740000D02*
X156210000Y-78740000D01*
X153670000Y-82550000D02*
X153670000Y-78740000D01*
X154838400Y-105960000D02*
X148588400Y-105960000D01*
X154838400Y-109960000D02*
X154838400Y-105960000D01*
X156210000Y-78740000D02*
X156210000Y-82550000D01*
X156210000Y-82550000D02*
X153670000Y-82550000D01*
X158239200Y-104190800D02*
X160779200Y-104190800D01*
X158239200Y-114350800D02*
X160779200Y-114350800D01*
X158239200Y-116890800D02*
X158239200Y-104190800D01*
X158239200Y-116890800D02*
X158239200Y-114350800D01*
X158750000Y-118110000D02*
X151130000Y-118110000D01*
X158750000Y-118110000D02*
X158750000Y-123190000D01*
X158750000Y-123190000D02*
X158750000Y-124460000D01*
X158750000Y-124460000D02*
X151130000Y-124460000D01*
X160020000Y-63500000D02*
X160020000Y-62230000D01*
X160779200Y-104190800D02*
X160779200Y-116890800D01*
X160779200Y-116890800D02*
X158239200Y-116890800D01*
X161290000Y-74930000D02*
X161290000Y-62230000D01*
X161290000Y-87630000D02*
X148590000Y-87630000D01*
X161290000Y-100330000D02*
X161290000Y-87630000D01*
X163830000Y-62230000D02*
X163830000Y-123190000D01*
X163830000Y-123190000D02*
X146050000Y-123190000D01*
X155838026Y-80645000D02*
G75*
G02*
X154041974Y-80645000I-898026J0D01*
G01*
X154041974Y-80645000D02*
G75*
G02*
X155838026Y-80645000I898026J0D01*
G01*
D12*
X154506000Y-92053000D02*
X154125000Y-92307000D01*
X153871000Y-92053000D01*
X154252000Y-91799000D01*
X154506000Y-92053000D01*
G36*
X154506000Y-92053000D02*
G01*
X154125000Y-92307000D01*
X153871000Y-92053000D01*
X154252000Y-91799000D01*
X154506000Y-92053000D01*
G37*
X154633000Y-91291000D02*
X154252000Y-91545000D01*
X153998000Y-91291000D01*
X154379000Y-91037000D01*
X154633000Y-91291000D01*
G36*
X154633000Y-91291000D02*
G01*
X154252000Y-91545000D01*
X153998000Y-91291000D01*
X154379000Y-91037000D01*
X154633000Y-91291000D01*
G37*
X154887000Y-89767000D02*
X154506000Y-90021000D01*
X154252000Y-89767000D01*
X154633000Y-89513000D01*
X154887000Y-89767000D01*
G36*
X154887000Y-89767000D02*
G01*
X154506000Y-90021000D01*
X154252000Y-89767000D01*
X154633000Y-89513000D01*
X154887000Y-89767000D01*
G37*
X155014000Y-91672000D02*
X154633000Y-91926000D01*
X154379000Y-91672000D01*
X154760000Y-91418000D01*
X155014000Y-91672000D01*
G36*
X155014000Y-91672000D02*
G01*
X154633000Y-91926000D01*
X154379000Y-91672000D01*
X154760000Y-91418000D01*
X155014000Y-91672000D01*
G37*
X155141000Y-90910000D02*
X154760000Y-91164000D01*
X154506000Y-90910000D01*
X154887000Y-90656000D01*
X155141000Y-90910000D01*
G36*
X155141000Y-90910000D02*
G01*
X154760000Y-91164000D01*
X154506000Y-90910000D01*
X154887000Y-90656000D01*
X155141000Y-90910000D01*
G37*
X155268000Y-90148000D02*
X154887000Y-90402000D01*
X154633000Y-90148000D01*
X155014000Y-89894000D01*
X155268000Y-90148000D01*
G36*
X155268000Y-90148000D02*
G01*
X154887000Y-90402000D01*
X154633000Y-90148000D01*
X155014000Y-89894000D01*
X155268000Y-90148000D01*
G37*
X155522000Y-91291000D02*
X155141000Y-91545000D01*
X154887000Y-91291000D01*
X155268000Y-91037000D01*
X155522000Y-91291000D01*
G36*
X155522000Y-91291000D02*
G01*
X155141000Y-91545000D01*
X154887000Y-91291000D01*
X155268000Y-91037000D01*
X155522000Y-91291000D01*
G37*
X155649000Y-90529000D02*
X155268000Y-90783000D01*
X155014000Y-90529000D01*
X155395000Y-90275000D01*
X155649000Y-90529000D01*
G36*
X155649000Y-90529000D02*
G01*
X155268000Y-90783000D01*
X155014000Y-90529000D01*
X155395000Y-90275000D01*
X155649000Y-90529000D01*
G37*
%TD*%
M02*
